<svg width="50" height="50" viewBox="0 0 50 50" fill="none" xmlns="http://www.w3.org/2000/svg">
<path d="M8.33333 41.6666C7.1875 41.6666 6.20625 41.2583 5.38958 40.4416C4.57292 39.6249 4.16528 38.6444 4.16667 37.4999V12.4999C4.16667 11.3541 4.575 10.3728 5.39167 9.55617C6.20833 8.73951 7.18889 8.33187 8.33333 8.33326H41.6667C42.8125 8.33326 43.7938 8.74159 44.6104 9.55826C45.4271 10.3749 45.8347 11.3555 45.8333 12.4999V37.4999C45.8333 38.6458 45.425 39.627 44.6083 40.4437C43.7917 41.2603 42.8111 41.668 41.6667 41.6666H8.33333ZM25 27.0833L8.33333 16.6666V37.4999H41.6667V16.6666L25 27.0833ZM25 22.9166L41.6667 12.4999H8.33333L25 22.9166ZM8.33333 16.6666V12.4999V37.4999V16.6666Z" fill="#635985"/>
</svg>
