<svg width="1440" height="222" viewBox="0 0 1440 222" fill="none" xmlns="http://www.w3.org/2000/svg">
<path fill-rule="evenodd" clip-rule="evenodd" d="M1767 222L1690.46 210C1613.92 198 1460.83 174 1307.75 132C1154.67 90 1001.58 30 848.5 30C695.417 30 542.333 90 389.25 96C236.167 102 83.0833 54 6.5416 30L-70.0001 6V-30H6.5416C83.0833 -30 236.167 -30 389.25 -30C542.333 -30 695.417 -30 848.5 -30C1001.58 -30 1154.67 -30 1307.75 -30C1460.83 -30 1613.92 -30 1690.46 -30H1767V222Z" fill="#635985"/>
</svg>
