<svg width="1440" height="276" viewBox="0 0 1440 276" fill="none" xmlns="http://www.w3.org/2000/svg">
<path fill-rule="evenodd" clip-rule="evenodd" d="M1858 182L1809.21 169.867C1762.1 157.733 1666.19 133.467 1570.29 133.467C1472.71 133.467 1376.8 157.733 1280.9 188.067C1185 218.4 1089.1 254.8 993.195 266.933C897.292 279.067 799.707 266.933 703.805 236.6C607.902 206.267 512 157.733 416.097 163.8C320.195 169.867 224.292 230.533 126.707 212.333C30.805 194.133 -65.0975 97.0667 -112.208 48.5333L-161 0V364H-112.208C-65.0975 364 30.805 364 126.707 364C224.292 364 320.195 364 416.097 364C512 364 607.902 364 703.805 364C799.707 364 897.292 364 993.195 364C1089.1 364 1185 364 1280.9 364C1376.8 364 1472.71 364 1570.29 364C1666.19 364 1762.1 364 1809.21 364H1858V182Z" fill="#635985"/>
</svg>
